<svg width="20" height="21" viewBox="0 0 20 21" fill="none" xmlns="http://www.w3.org/2000/svg">
    <path
        d="M19 5.66562C18.8235 5.75705 18.6178 5.77463 18.4283 5.71451C18.2388 5.65439 18.0809 5.52148 17.9894 5.345C17.2735 3.93077 16.1899 2.73547 14.8525 1.88469C14.7692 1.83212 14.697 1.76365 14.6401 1.68318C14.5832 1.60272 14.5427 1.51184 14.521 1.41573C14.4992 1.31962 14.4966 1.22016 14.5133 1.12304C14.5299 1.02592 14.5656 0.933035 14.6181 0.849687C14.6707 0.766338 14.7392 0.69416 14.8196 0.637274C14.9001 0.580388 14.991 0.539907 15.0871 0.518144C15.1832 0.49638 15.2827 0.493759 15.3798 0.510431C15.4769 0.527103 15.5698 0.562742 15.6531 0.615312C17.2118 1.61331 18.4775 3.0074 19.3206 4.655C19.4121 4.83155 19.4296 5.03717 19.3695 5.22668C19.3094 5.41619 19.1765 5.57407 19 5.66562ZM1.34783 5.75C1.48523 5.74994 1.61998 5.71214 1.73736 5.64072C1.85474 5.5693 1.95025 5.467 2.01346 5.345C2.72933 3.93077 3.81291 2.73547 5.15033 1.88469C5.31866 1.77852 5.43792 1.60983 5.48187 1.41573C5.52583 1.22163 5.49087 1.01802 5.3847 0.849687C5.27853 0.681357 5.10985 0.562097 4.91575 0.518144C4.72165 0.47419 4.51803 0.509142 4.34971 0.615312C2.79102 1.61331 1.52537 3.0074 0.682206 4.655C0.622991 4.7693 0.594192 4.89691 0.598581 5.02557C0.602969 5.15422 0.640397 5.27958 0.707263 5.38958C0.774128 5.49957 0.868181 5.59051 0.980369 5.65364C1.09256 5.71676 1.2191 5.74995 1.34783 5.75ZM18.7947 15.4944C18.9276 15.7222 18.998 15.9811 18.9989 16.2449C18.9998 16.5086 18.9312 16.768 18.7999 16.9967C18.6686 17.2255 18.4793 17.4156 18.251 17.5478C18.0228 17.6801 17.7638 17.7498 17.5 17.75H13.675C13.5029 18.5977 13.043 19.3599 12.3732 19.9073C11.7035 20.4547 10.865 20.7538 10 20.7538C9.135 20.7538 8.29658 20.4547 7.62682 19.9073C6.95706 19.3599 6.49715 18.5977 6.32502 17.75H2.50002C2.23641 17.7495 1.9776 17.6795 1.74965 17.5471C1.5217 17.4147 1.33266 17.2246 1.20158 16.9959C1.0705 16.7672 1.002 16.508 1.00299 16.2444C1.00398 15.9808 1.07441 15.7221 1.20721 15.4944C2.05189 14.0366 2.50002 11.9637 2.50002 9.5C2.50002 7.51088 3.29019 5.60322 4.69672 4.1967C6.10324 2.79018 8.01089 2 10 2C11.9891 2 13.8968 2.79018 15.3033 4.1967C16.7098 5.60322 17.5 7.51088 17.5 9.5C17.5 11.9628 17.9481 14.0356 18.7947 15.4944ZM12.1206 17.75H7.87939C8.03477 18.1882 8.32209 18.5675 8.70183 18.8358C9.08157 19.104 9.53508 19.248 10 19.248C10.4649 19.248 10.9185 19.104 11.2982 18.8358C11.6779 18.5675 11.9653 18.1882 12.1206 17.75ZM17.5 16.25C16.5025 14.5372 16 12.2666 16 9.5C16 7.9087 15.3679 6.38258 14.2427 5.25736C13.1174 4.13214 11.5913 3.5 10 3.5C8.40872 3.5 6.88259 4.13214 5.75738 5.25736C4.63216 6.38258 4.00002 7.9087 4.00002 9.5C4.00002 12.2675 3.49564 14.5381 2.50002 16.25H17.5Z"
        fill="#929398" />
</svg>