<svg width="28" height="20" viewBox="0 0 28 20" fill="none" xmlns="http://www.w3.org/2000/svg">
    <rect width="28" height="20" fill="white" />
    <path fill-rule="evenodd" clip-rule="evenodd" d="M0.666748 0V20H27.3334V0H0.666748Z"
        fill="#2E42A5" />
    <mask id="mask0_12_15675" style="mask-type:luminance" maskUnits="userSpaceOnUse" x="0" y="0"
        width="28" height="20">
        <path fill-rule="evenodd" clip-rule="evenodd" d="M0.666748 0V20H27.3334V0H0.666748Z"
            fill="white" />
    </mask>
    <g mask="url(#mask0_12_15675)">
        <path
            d="M-2.30273 18.5712L3.56534 21.0529L27.4664 2.69822L30.5616 -0.989677L24.2866 -1.81914L14.5379 6.09042L6.69126 11.4196L-2.30273 18.5712Z"
            fill="white" />
        <path d="M-1.49951 20.31L1.49 21.7501L29.45 -1.33232H25.2524L-1.49951 20.31Z" fill="#F50100" />
        <path
            d="M30.3025 18.5712L24.4344 21.0529L0.533384 2.69822L-2.56189 -0.989677L3.71317 -1.81914L13.4618 6.09042L21.3085 11.4196L30.3025 18.5712Z"
            fill="white" />
        <path
            d="M30.1023 19.8191L27.1128 21.2593L15.2071 11.3765L11.6773 10.2723L-2.85969 -0.977053H1.33793L15.8668 10.0053L19.726 11.3293L30.1023 19.8191Z"
            fill="#F50100" />
        <mask id="path-7-inside-1_12_15675" fill="white">
            <path fill-rule="evenodd" clip-rule="evenodd"
                d="M17.1482 -1.66665H10.8519V6.66669H-0.977051V13.3334H10.8519V21.6667H17.1482V13.3334H29.0229V6.66669H17.1482V-1.66665Z" />
        </mask>
        <path fill-rule="evenodd" clip-rule="evenodd"
            d="M17.1482 -1.66665H10.8519V6.66669H-0.977051V13.3334H10.8519V21.6667H17.1482V13.3334H29.0229V6.66669H17.1482V-1.66665Z"
            fill="#F50100" />
        <path
            d="M10.8519 -1.66665V-3.33331H9.1852V-1.66665H10.8519ZM17.1482 -1.66665H18.8148V-3.33331H17.1482V-1.66665ZM10.8519 6.66669V8.33335H12.5185V6.66669H10.8519ZM-0.977051 6.66669V5.00002H-2.64372V6.66669H-0.977051ZM-0.977051 13.3334H-2.64372V15H-0.977051V13.3334ZM10.8519 13.3334H12.5185V11.6667H10.8519V13.3334ZM10.8519 21.6667H9.1852V23.3334H10.8519V21.6667ZM17.1482 21.6667V23.3334H18.8148V21.6667H17.1482ZM17.1482 13.3334V11.6667H15.4815V13.3334H17.1482ZM29.0229 13.3334V15H30.6896V13.3334H29.0229ZM29.0229 6.66669H30.6896V5.00002H29.0229V6.66669ZM17.1482 6.66669H15.4815V8.33335H17.1482V6.66669ZM10.8519 1.96695e-05H17.1482V-3.33331H10.8519V1.96695e-05ZM12.5185 6.66669V-1.66665H9.1852V6.66669H12.5185ZM-0.977051 8.33335H10.8519V5.00002H-0.977051V8.33335ZM0.689616 13.3334V6.66669H-2.64372V13.3334H0.689616ZM10.8519 11.6667H-0.977051V15H10.8519V11.6667ZM12.5185 21.6667V13.3334H9.1852V21.6667H12.5185ZM17.1482 20H10.8519V23.3334H17.1482V20ZM15.4815 13.3334V21.6667H18.8148V13.3334H15.4815ZM29.0229 11.6667H17.1482V15H29.0229V11.6667ZM27.3563 6.66669V13.3334H30.6896V6.66669H27.3563ZM17.1482 8.33335H29.0229V5.00002H17.1482V8.33335ZM15.4815 -1.66665V6.66669H18.8148V-1.66665H15.4815Z"
            fill="white" mask="url(#path-7-inside-1_12_15675)" />
    </g>
</svg>