<svg width="17" height="17" viewBox="0 0 17 17" fill="none" xmlns="http://www.w3.org/2000/svg">
    <path
        d="M11.8538 8.85372L6.85378 13.8537C6.80733 13.9002 6.75218 13.937 6.69148 13.9622C6.63079 13.9873 6.56573 14.0003 6.50003 14.0003C6.43434 14.0003 6.36928 13.9873 6.30859 13.9622C6.24789 13.937 6.19274 13.9002 6.14628 13.8537C6.09983 13.8073 6.06298 13.7521 6.03784 13.6914C6.0127 13.6307 5.99976 13.5657 5.99976 13.5C5.99976 13.4343 6.0127 13.3692 6.03784 13.3085C6.06298 13.2478 6.09983 13.1927 6.14628 13.1462L10.7932 8.49997L6.14628 3.85372C6.05246 3.7599 5.99976 3.63265 5.99976 3.49997C5.99976 3.36729 6.05246 3.24004 6.14628 3.14622C6.2401 3.0524 6.36735 2.99969 6.50003 2.99969C6.63272 2.99969 6.75996 3.0524 6.85378 3.14622L11.8538 8.14622C11.9003 8.19266 11.9372 8.2478 11.9623 8.3085C11.9875 8.3692 12.0004 8.43427 12.0004 8.49997C12.0004 8.56568 11.9875 8.63074 11.9623 8.69144C11.9372 8.75214 11.9003 8.80729 11.8538 8.85372Z"
        fill="#436EDF" />
</svg>