<svg width="12" height="6" viewBox="0 0 12 6" fill="none" xmlns="http://www.w3.org/2000/svg">
    <path
        d="M11.3538 0.853754L6.35378 5.85375C6.30735 5.90024 6.2522 5.93712 6.1915 5.96228C6.13081 5.98745 6.06574 6.0004 6.00003 6.0004C5.93433 6.0004 5.86926 5.98745 5.80856 5.96228C5.74786 5.93712 5.69272 5.90024 5.64628 5.85375L0.646284 0.853754C0.552464 0.759933 0.499756 0.632685 0.499756 0.500003C0.499756 0.367321 0.552464 0.240073 0.646284 0.146253C0.740104 0.0524328 0.867352 -0.000274658 1.00003 -0.000274658C1.13272 -0.000274658 1.25996 0.0524328 1.35378 0.146253L6.00003 4.79313L10.6463 0.146253C10.6927 0.099798 10.7479 0.0629478 10.8086 0.0378065C10.8693 0.0126652 10.9343 -0.000274658 11 -0.000274658C11.0657 -0.000274658 11.1308 0.0126652 11.1915 0.0378065C11.2522 0.0629478 11.3073 0.099798 11.3538 0.146253C11.4002 0.192708 11.4371 0.247859 11.4622 0.308555C11.4874 0.369252 11.5003 0.434306 11.5003 0.500003C11.5003 0.565701 11.4874 0.630755 11.4622 0.691451C11.4371 0.752148 11.4002 0.807298 11.3538 0.853754Z"
        fill="white" />
</svg>