<svg width="14" height="18" viewBox="0 0 14 18" fill="none" xmlns="http://www.w3.org/2000/svg">
    <path
        d="M10.125 11.375C10.125 11.5408 10.0592 11.6997 9.94194 11.8169C9.82473 11.9342 9.66576 12 9.5 12H4.5C4.33424 12 4.17527 11.9342 4.05806 11.8169C3.94085 11.6997 3.875 11.5408 3.875 11.375C3.875 11.2092 3.94085 11.0503 4.05806 10.9331C4.17527 10.8158 4.33424 10.75 4.5 10.75H9.5C9.66576 10.75 9.82473 10.8158 9.94194 10.9331C10.0592 11.0503 10.125 11.2092 10.125 11.375ZM9.5 8.25H4.5C4.33424 8.25 4.17527 8.31585 4.05806 8.43306C3.94085 8.55027 3.875 8.70924 3.875 8.875C3.875 9.04076 3.94085 9.19973 4.05806 9.31694C4.17527 9.43415 4.33424 9.5 4.5 9.5H9.5C9.66576 9.5 9.82473 9.43415 9.94194 9.31694C10.0592 9.19973 10.125 9.04076 10.125 8.875C10.125 8.70924 10.0592 8.55027 9.94194 8.43306C9.82473 8.31585 9.66576 8.25 9.5 8.25ZM13.875 3.25V16.375C13.875 16.7065 13.7433 17.0245 13.5089 17.2589C13.2745 17.4933 12.9565 17.625 12.625 17.625H1.375C1.04348 17.625 0.725537 17.4933 0.491116 17.2589C0.256696 17.0245 0.125 16.7065 0.125 16.375V3.25C0.125 2.91848 0.256696 2.60054 0.491116 2.36612C0.725537 2.1317 1.04348 2 1.375 2H4.20781C4.55899 1.60682 4.98924 1.29223 5.47041 1.07684C5.95158 0.861454 6.47282 0.750114 7 0.750114C7.52718 0.750114 8.04841 0.861454 8.52958 1.07684C9.01076 1.29223 9.44101 1.60682 9.79219 2H12.625C12.9565 2 13.2745 2.1317 13.5089 2.36612C13.7433 2.60054 13.875 2.91848 13.875 3.25ZM4.5 4.5H9.5C9.5 3.83696 9.23661 3.20108 8.76777 2.73223C8.29893 2.26339 7.66304 2 7 2C6.33696 2 5.70107 2.26339 5.23223 2.73223C4.76339 3.20108 4.5 3.83696 4.5 4.5ZM12.625 3.25H10.5352C10.6773 3.65142 10.75 4.07415 10.75 4.5V5.125C10.75 5.29076 10.6842 5.44973 10.5669 5.56694C10.4497 5.68415 10.2908 5.75 10.125 5.75H3.875C3.70924 5.75 3.55027 5.68415 3.43306 5.56694C3.31585 5.44973 3.25 5.29076 3.25 5.125V4.5C3.25001 4.07415 3.32267 3.65142 3.46484 3.25H1.375V16.375H12.625V3.25Z"
        fill="white" />
</svg>