<svg width="20" height="21" viewBox="0 0 20 21" fill="none" xmlns="http://www.w3.org/2000/svg">
    <path
        d="M9.07581 8.86719C9.32113 9.11192 9.65351 9.24937 10 9.24937C10.3466 9.24937 10.6789 9.11192 10.9242 8.86719L13.3672 6.42344C13.4886 6.30213 13.5848 6.15811 13.6505 5.9996C13.7162 5.84109 13.75 5.67119 13.75 5.49961C13.75 5.32803 13.7162 5.15813 13.6505 4.99962C13.5848 4.8411 13.4886 4.69708 13.3672 4.57578L10.9242 2.13203C10.6789 1.88729 10.3466 1.74985 10 1.74985C9.65351 1.74985 9.32113 1.88729 9.07581 2.13203L6.63284 4.57578C6.51149 4.69708 6.41523 4.8411 6.34956 4.99962C6.28388 5.15813 6.25008 5.32803 6.25008 5.49961C6.25008 5.67119 6.28388 5.84109 6.34956 5.9996C6.41523 6.15811 6.51149 6.30213 6.63284 6.42344L9.07581 8.86719ZM7.51331 5.45937L9.95706 3.0164C9.96745 3.0061 9.98149 3.00032 9.99612 3.00032C10.0108 3.00032 10.0248 3.0061 10.0352 3.0164L12.4789 5.45937C12.4887 5.47004 12.4941 5.48397 12.4941 5.49844C12.4941 5.5129 12.4887 5.52684 12.4789 5.5375L10.0399 7.98359C10.0294 7.99371 10.0154 7.99937 10.0008 7.99937C9.98624 7.99937 9.97223 7.99371 9.96175 7.98359L7.51643 5.53984C7.50598 5.52906 7.50014 5.51463 7.50014 5.49961C7.50014 5.48459 7.50598 5.47016 7.51643 5.45937H7.51331ZM18.3649 9.57578L15.9242 7.13203C15.6791 6.88734 15.3468 6.74991 15.0004 6.74991C14.654 6.74991 14.3218 6.88734 14.0766 7.13203L11.6328 9.57578C11.3881 9.8211 11.2507 10.1535 11.2507 10.5C11.2507 10.8465 11.3881 11.1789 11.6328 11.4242L14.0766 13.868C14.3218 14.1127 14.654 14.2501 15.0004 14.2501C15.3468 14.2501 15.6791 14.1127 15.9242 13.868L18.368 11.4242C18.6127 11.1789 18.7502 10.8465 18.7502 10.5C18.7502 10.1535 18.6127 9.8211 18.368 9.57578H18.3649ZM17.4844 10.5398L15.0407 12.9836C15.03 12.9934 15.0161 12.9988 15.0016 12.9988C14.9871 12.9988 14.9732 12.9934 14.9625 12.9836L12.5188 10.5398C12.5087 10.5294 12.503 10.5154 12.503 10.5008C12.503 10.4862 12.5087 10.4722 12.5188 10.4617L14.9625 8.01797C14.9732 8.00819 14.9871 8.00277 15.0016 8.00277C15.0161 8.00277 15.03 8.00819 15.0407 8.01797L17.4844 10.4617C17.4945 10.4722 17.5002 10.4862 17.5002 10.5008C17.5002 10.5154 17.4945 10.5294 17.4844 10.5398ZM8.36722 9.57578L5.92347 7.13203C5.67828 6.88734 5.34603 6.74991 4.99964 6.74991C4.65324 6.74991 4.321 6.88734 4.07581 7.13203L1.63206 9.57578C1.38732 9.8211 1.24988 10.1535 1.24988 10.5C1.24988 10.8465 1.38732 11.1789 1.63206 11.4242L4.07581 13.868C4.321 14.1127 4.65324 14.2501 4.99964 14.2501C5.34603 14.2501 5.67828 14.1127 5.92347 13.868L8.36722 11.4242C8.61195 11.1789 8.7494 10.8465 8.7494 10.5C8.7494 10.1535 8.61195 9.8211 8.36722 9.57578ZM7.48362 10.5398L5.03987 12.9836C5.02921 12.9934 5.01527 12.9988 5.00081 12.9988C4.98635 12.9988 4.97241 12.9934 4.96175 12.9836L2.51565 10.5398C2.50553 10.5294 2.49988 10.5154 2.49988 10.5008C2.49988 10.4862 2.50553 10.4722 2.51565 10.4617L4.9594 8.0164C4.97007 8.00663 4.984 8.00121 4.99847 8.00121C5.01293 8.00121 5.02687 8.00663 5.03753 8.0164L7.48128 10.4602C7.48668 10.4652 7.49102 10.4713 7.49407 10.4781C7.49711 10.4848 7.49879 10.4921 7.49901 10.4995C7.49922 10.5069 7.49798 10.5143 7.49534 10.5212C7.4927 10.5281 7.48872 10.5345 7.48362 10.5398ZM10.9211 12.1328C10.6758 11.8881 10.3434 11.7506 9.9969 11.7506C9.65038 11.7506 9.318 11.8881 9.07268 12.1328L6.63284 14.5766C6.51149 14.6979 6.41523 14.8419 6.34956 15.0004C6.28388 15.1589 6.25008 15.3288 6.25008 15.5004C6.25008 15.672 6.28388 15.8419 6.34956 16.0004C6.41523 16.1589 6.51149 16.3029 6.63284 16.4242L9.07581 18.868C9.32113 19.1127 9.65351 19.2501 10 19.2501C10.3466 19.2501 10.6789 19.1127 10.9242 18.868L13.3672 16.4242C13.4886 16.3029 13.5848 16.1589 13.6505 16.0004C13.7162 15.8419 13.75 15.672 13.75 15.5004C13.75 15.3288 13.7162 15.1589 13.6505 15.0004C13.5848 14.8419 13.4886 14.6979 13.3672 14.5766L10.9211 12.1328ZM12.4836 15.5406L10.0399 17.9836C10.0295 17.9939 10.0154 17.9997 10.0008 17.9997C9.98618 17.9997 9.97214 17.9939 9.96175 17.9836L7.51643 15.5406C7.50666 15.53 7.50124 15.516 7.50124 15.5016C7.50124 15.4871 7.50666 15.4732 7.51643 15.4625L9.96019 13.0187C9.97067 13.0086 9.98467 13.003 9.99925 13.003C10.0138 13.003 10.0278 13.0086 10.0383 13.0187L12.4821 15.4625C12.492 15.473 12.4977 15.4868 12.498 15.5013C12.4983 15.5157 12.4932 15.5298 12.4836 15.5406Z"
        fill="#C5D2F5" />
</svg>