<svg width="20" height="21" viewBox="0 0 20 21" fill="none" xmlns="http://www.w3.org/2000/svg">
    <path
        d="M18.125 16.75C18.125 16.9158 18.0592 17.0747 17.9419 17.1919C17.8247 17.3092 17.6658 17.375 17.5 17.375H2.5C2.33424 17.375 2.17527 17.3092 2.05806 17.1919C1.94085 17.0747 1.875 16.9158 1.875 16.75V4.25C1.875 4.08424 1.94085 3.92527 2.05806 3.80806C2.17527 3.69085 2.33424 3.625 2.5 3.625C2.66576 3.625 2.82473 3.69085 2.94194 3.80806C3.05915 3.92527 3.125 4.08424 3.125 4.25V11.6227L7.08828 8.15625C7.19613 8.06184 7.33315 8.00737 7.47638 8.00197C7.61961 7.99656 7.76034 8.04055 7.875 8.12656L12.4695 11.5727L17.0883 7.53125C17.1488 7.4713 17.221 7.42437 17.3004 7.39334C17.3797 7.36231 17.4646 7.34784 17.5498 7.35081C17.6349 7.35378 17.7186 7.37414 17.7956 7.41062C17.8726 7.44711 17.9413 7.49896 17.9976 7.56298C18.0538 7.627 18.0963 7.70185 18.1226 7.78292C18.1488 7.86399 18.1582 7.94956 18.1502 8.0344C18.1421 8.11923 18.1168 8.20152 18.0758 8.27622C18.0348 8.35091 17.979 8.41643 17.9117 8.46875L12.9117 12.8438C12.8039 12.9382 12.6669 12.9926 12.5236 12.998C12.3804 13.0034 12.2397 12.9594 12.125 12.8734L7.53047 9.42891L3.125 13.2836V16.125H17.5C17.6658 16.125 17.8247 16.1908 17.9419 16.3081C18.0592 16.4253 18.125 16.5842 18.125 16.75Z"
        fill="#C5D2F5" />
</svg>