<svg width="57" height="32" viewBox="0 0 57 32" fill="none" xmlns="http://www.w3.org/2000/svg">
    <g clip-path="url(#clip0_12_17343)">
        <path
            d="M24.4856 17.9822L24.1529 5.95752C24.1529 5.58368 23.8425 5.29788 23.4876 5.29788C23.1107 5.29788 22.8223 5.58368 22.8223 5.95752L22.5117 17.9822L22.8223 23.7636C22.8223 24.1375 23.1327 24.4233 23.4876 24.4233C23.8646 24.4233 24.1529 24.1375 24.1529 23.7636L24.4856 17.9822Z"
            fill="url(#paint0_linear_12_17343)" />
        <path
            d="M22.0903 17.9822L21.7133 5.49562C21.7134 5.41477 21.6974 5.33469 21.6663 5.25998C21.6351 5.18526 21.5894 5.11738 21.5317 5.06022C21.474 5.00306 21.4055 4.95774 21.3301 4.92688C21.2547 4.89601 21.1739 4.8802 21.0923 4.88034C21.0107 4.88017 20.9299 4.89597 20.8544 4.92683C20.779 4.9577 20.7104 5.00303 20.6527 5.06022C20.595 5.1174 20.5493 5.18532 20.5181 5.26008C20.4869 5.33484 20.471 5.41496 20.4711 5.49585L20.1387 17.9604L20.4713 23.7857C20.4711 23.8666 20.4871 23.9467 20.5182 24.0215C20.5494 24.0963 20.5951 24.1642 20.6528 24.2214C20.7105 24.2786 20.779 24.324 20.8544 24.3549C20.9299 24.3858 21.0107 24.4016 21.0923 24.4014C21.1739 24.4016 21.2548 24.3858 21.3302 24.3549C21.4057 24.3241 21.4742 24.2787 21.532 24.2215C21.5897 24.1643 21.6354 24.0963 21.6666 24.0216C21.6977 23.9468 21.7137 23.8666 21.7135 23.7857L22.0903 17.9822Z"
            fill="url(#paint1_linear_12_17343)" />
        <path
            d="M16.9227 5.58366C16.9004 5.29787 16.6786 5.05621 16.3905 5.05621C16.1022 5.05621 15.8802 5.27602 15.8581 5.58366L15.481 17.9602L15.8581 23.8735C15.8581 24.1593 16.1022 24.3791 16.3903 24.3791C16.6786 24.3791 16.9006 24.1593 16.9227 23.8517L17.3662 17.9381L16.9227 5.58366Z"
            fill="url(#paint2_linear_12_17343)" />
        <path
            d="M19.3179 5.16611C19.3179 4.85825 19.0518 4.59453 18.7412 4.59453C18.6653 4.594 18.5901 4.60842 18.5199 4.63696C18.4497 4.6655 18.3859 4.70758 18.3322 4.76076C18.2786 4.81395 18.2361 4.87717 18.2073 4.94675C18.1785 5.01634 18.164 5.0909 18.1645 5.16611L17.8098 17.9602L18.1645 23.8296C18.1645 24.1375 18.4308 24.4012 18.7412 24.4012C19.0518 24.4012 19.2956 24.1593 19.3179 23.8296L19.7171 17.9602L19.3179 5.16611Z"
            fill="url(#paint3_linear_12_17343)" />
        <path
            d="M7.23021 24.2472C7.40766 24.2472 7.54081 24.1154 7.56285 23.9177L8.13953 17.9602L7.56285 11.8051C7.54059 11.629 7.40766 11.4752 7.23021 11.4752C7.05275 11.4752 6.91982 11.6072 6.89756 11.8049L6.38745 17.9602L6.89756 23.9177C6.89756 24.1154 7.05275 24.2472 7.23021 24.2472Z"
            fill="url(#paint4_linear_12_17343)" />
        <path
            d="M26.9032 17.9822L26.5926 3.69325C26.5926 3.45137 26.4597 3.23157 26.26 3.09959C26.1491 3.03361 26.0162 2.96762 25.8607 2.96762C25.7278 2.96762 25.5947 3.01176 25.4615 3.07775C25.262 3.2095 25.1289 3.4293 25.1289 3.67118V3.80315L24.8628 17.9604L25.1289 23.6979V23.72C25.1289 23.8736 25.1954 24.0276 25.3063 24.1375C25.4395 24.2913 25.639 24.4012 25.8607 24.4012C26.0605 24.4012 26.2379 24.3134 26.3708 24.2035C26.504 24.0715 26.5926 23.8956 26.5926 23.6979L26.6149 23.1263L26.9032 17.9822Z"
            fill="url(#paint5_linear_12_17343)" />
        <path
            d="M9.86959 12.2445C9.84733 12.0247 9.69213 11.8709 9.49241 11.8709C9.29291 11.8709 9.11545 12.0247 9.11545 12.2445L8.64966 17.9604L9.11545 23.9616C9.13772 24.1814 9.29291 24.3352 9.49241 24.3352C9.69213 24.3352 9.86959 24.1814 9.86959 23.9616L10.4017 17.9602L9.86959 12.2445Z"
            fill="url(#paint6_linear_12_17343)" />
        <path
            d="M11.7769 8.24365C11.5551 8.24365 11.3556 8.41954 11.3556 8.66142L10.9121 17.9602L11.3554 23.9616C11.3777 24.2035 11.5549 24.3792 11.7767 24.3792C11.9984 24.3792 12.1982 24.2035 12.1982 23.9616L12.7083 17.9602L12.1982 8.66142C12.1982 8.44161 11.9984 8.24365 11.7767 8.24365"
            fill="url(#paint7_linear_12_17343)" />
        <path
            d="M14.5273 23.9616L14.9931 17.9822L14.5273 6.55095C14.505 6.28722 14.3055 6.08926 14.0395 6.08926C13.7732 6.08926 13.5737 6.28722 13.5514 6.55095L13.1301 17.9822L13.5514 23.9616C13.5514 24.2253 13.7732 24.4233 14.0395 24.4233C14.3055 24.4453 14.5053 24.2253 14.5273 23.9616Z"
            fill="url(#paint8_linear_12_17343)" />
        <path
            d="M28.6552 1.73684C28.5349 1.66447 28.3967 1.62636 28.256 1.62671C28.0778 1.628 27.9055 1.69012 27.7681 1.8026C27.5907 1.93457 27.4798 2.15438 27.4798 2.39626V2.48409L27.1692 18.0041L27.3246 20.862L27.4798 23.6537C27.4798 24.0715 27.8347 24.4012 28.256 24.4012C28.6775 24.4012 29.0101 24.0494 29.0324 23.6319L29.365 17.9822L29.0324 2.39626C29.0101 2.11046 28.877 1.86881 28.6552 1.73684Z"
            fill="url(#paint9_linear_12_17343)" />
        <path
            d="M0.643254 21.2577C0.754137 21.2577 0.842754 21.1697 0.865019 21.0379L1.35286 17.9602L0.865019 14.8385C0.842754 14.7068 0.754137 14.6187 0.643254 14.6187C0.584474 14.6188 0.528135 14.642 0.486572 14.6832C0.445008 14.7244 0.421606 14.7803 0.421488 14.8385L0 17.9602L0.421488 21.0379C0.421488 21.1697 0.532371 21.2577 0.643254 21.2577Z"
            fill="url(#paint10_linear_12_17343)" />
        <path
            d="M2.75035 23.1261C2.86123 23.1261 2.97212 23.0382 2.99416 22.9065L3.63763 17.9602L2.99416 12.9042C2.97189 12.7722 2.88328 12.6841 2.75035 12.6841C2.63947 12.6841 2.52858 12.7722 2.50632 12.9042L1.9519 17.9602L2.50632 22.9065C2.52858 23.0382 2.6172 23.1261 2.75035 23.1261Z"
            fill="url(#paint11_linear_12_17343)" />
        <path
            d="M4.96819 24.0276C5.12338 24.0276 5.23427 23.9177 5.25653 23.7418L5.85548 17.9602L5.25653 11.9587C5.23427 11.8049 5.12338 11.6729 4.96819 11.6729C4.813 11.6729 4.70212 11.7828 4.67985 11.9587L4.14771 17.9602L4.67985 23.7418C4.70212 23.8956 4.813 24.0276 4.96819 24.0276Z"
            fill="url(#paint12_linear_12_17343)" />
        <path
            d="M49.7918 10.5958C48.8382 10.5958 47.9288 10.7937 47.0861 11.1234C46.5317 4.90218 41.2529 0 34.8211 0C33.2956 0.00114715 31.7837 0.284432 30.3631 0.83531C29.8309 1.03327 29.6978 1.25308 29.6978 1.64877V23.6098C29.6978 24.0276 30.0304 24.3573 30.4519 24.4012H49.8141C53.6732 24.4012 56.8006 21.3455 56.8006 17.5206C56.7783 13.6956 53.6511 10.5958 49.7918 10.5958Z"
            fill="url(#paint13_linear_12_17343)" />
        <path
            d="M5.5668 28.578C4.74631 28.3802 4.52454 28.2922 4.52454 27.9625C4.52454 27.7427 4.702 27.5008 5.25642 27.5008C5.72221 27.5008 6.09917 27.6988 6.43204 28.0282L7.18596 27.3031C6.69789 26.7975 6.09917 26.4896 5.30072 26.4896C4.28051 26.4896 3.4598 27.0612 3.4598 27.9845C3.4598 28.9957 4.12532 29.3034 5.07896 29.5013C6.05486 29.7212 6.23232 29.875 6.23232 30.2047C6.23232 30.6004 5.94398 30.7542 5.32299 30.7542C4.83493 30.7542 4.36913 30.5785 3.99217 30.1608L3.23804 30.8202C3.63726 31.3918 4.3914 31.7436 5.23415 31.7436C6.65358 31.7436 7.25253 31.0841 7.25253 30.1168C7.29684 29.0397 6.38729 28.7539 5.5668 28.578ZM10.3357 26.5117C8.91622 26.5117 8.09551 27.5886 8.09551 29.1496C8.09551 30.7103 8.93826 31.7875 10.3354 31.7875C11.7328 31.7875 12.5756 30.7105 12.5756 29.1496C12.5756 27.5888 11.7328 26.5117 10.3357 26.5117ZM10.3357 30.7544C9.49267 30.7544 9.16003 30.0509 9.16003 29.1275C9.16003 28.2044 9.51494 27.501 10.3357 27.501C11.1784 27.501 11.5113 28.2044 11.5113 29.1275C11.5113 30.0509 11.1561 30.7544 10.3357 30.7544ZM16.7453 29.4574C16.7453 30.2707 16.346 30.7763 15.6807 30.7763C15.0154 30.7763 14.6162 30.2488 14.6162 29.4354V26.5774H13.5737V29.4574C13.5737 30.9522 14.4165 31.7875 15.6585 31.7875C16.967 31.7875 17.7434 30.9303 17.7434 29.4574V26.5995H16.7009V29.4574H16.7453ZM22.2235 28.7539C22.2235 29.0397 22.2458 29.6772 22.2458 29.875C22.179 29.7432 22.0017 29.4793 21.8908 29.3034L20.0499 26.5995H19.052V31.7217H20.0722V29.4574C20.0722 29.1716 20.0499 28.5341 20.0499 28.3363C20.1167 28.4681 20.294 28.7318 20.4048 28.9079L22.2901 31.6996H23.2217V26.5774H22.201V28.7539H22.2235ZM26.1935 26.5776H24.5745V31.6996H26.1048C27.4357 31.6996 28.7442 30.9303 28.7442 29.1496C28.7442 27.2591 27.6574 26.5776 26.1935 26.5776ZM26.1048 30.7103H25.5947V27.5888H26.1491C27.2359 27.5888 27.7017 28.1163 27.7017 29.1496C27.7017 30.0729 27.1916 30.7103 26.1048 30.7103ZM31.938 27.5229C32.4038 27.5229 32.6919 27.7206 32.8916 28.0724L33.8453 27.6328C33.5126 26.9733 32.9359 26.4896 31.96 26.4896C30.6072 26.4896 29.6756 27.5668 29.6756 29.1275C29.6756 30.7324 30.5849 31.7656 31.9378 31.7656C32.8694 31.7656 33.4903 31.326 33.8453 30.6004L32.9802 30.095C32.7142 30.5565 32.4258 30.7544 31.96 30.7544C31.1838 30.7544 30.7403 30.0509 30.7403 29.1275C30.7403 28.1823 31.1838 27.5229 31.938 27.5229ZM35.7748 26.5776H34.7325V31.6996H37.8375V30.6884H35.7748V26.5776ZM40.5655 26.5114C39.146 26.5114 38.3256 27.5888 38.3256 29.1496C38.3256 30.7103 39.1683 31.7875 40.5655 31.7875C41.9849 31.7875 42.8056 30.7105 42.8056 29.1496C42.8056 27.5888 41.9849 26.5117 40.5657 26.5117M40.5657 30.7546C39.7229 30.7546 39.3901 30.0511 39.3901 29.1277C39.3901 28.2046 39.7452 27.5012 40.5657 27.5012C41.4087 27.5012 41.7413 28.2046 41.7413 29.1277C41.7413 30.0511 41.4087 30.7546 40.5657 30.7546ZM46.9755 29.4576C46.9755 30.2709 46.5763 30.7765 45.911 30.7765C45.2455 30.7765 44.8463 30.249 44.8463 29.4356V26.5776H43.804V29.4576C43.804 30.9524 44.6468 31.7877 45.8887 31.7877C47.1973 31.7877 47.9735 30.9305 47.9735 29.4576V26.5997H46.9312V29.4576H46.9755ZM50.9232 26.5776H49.3043V31.6999H50.8346C52.1654 31.6999 53.474 30.9305 53.474 29.1498C53.474 27.2594 52.3872 26.5779 50.9234 26.5779M50.8348 30.7107H50.347V27.5893H50.9014C51.988 27.5893 52.4317 28.1167 52.4317 29.15C52.4317 30.0734 51.9218 30.7107 50.8348 30.7107Z"
            fill="#F04923" />
    </g>
    <defs>
        <linearGradient id="paint0_linear_12_17343" x1="120.649" y1="-524.495" x2="120.649"
            y2="1919.45" gradientUnits="userSpaceOnUse">
            <stop stop-color="#F6871F" />
            <stop offset="0.2393" stop-color="#F57E20" />
            <stop offset="0.6262" stop-color="#F36621" />
            <stop offset="1" stop-color="#F04923" />
        </linearGradient>
        <linearGradient id="paint1_linear_12_17343" x1="118.124" y1="-483.147" x2="118.124"
            y2="1960.8" gradientUnits="userSpaceOnUse">
            <stop stop-color="#F6871F" />
            <stop offset="0.2393" stop-color="#F57E20" />
            <stop offset="0.6262" stop-color="#F36621" />
            <stop offset="1" stop-color="#F04923" />
        </linearGradient>
        <linearGradient id="paint2_linear_12_17343" x1="109.801" y1="-500.547" x2="109.801"
            y2="1943.36" gradientUnits="userSpaceOnUse">
            <stop stop-color="#F6871F" />
            <stop offset="0.2393" stop-color="#F57E20" />
            <stop offset="0.6262" stop-color="#F36621" />
            <stop offset="1" stop-color="#F04923" />
        </linearGradient>
        <linearGradient id="paint3_linear_12_17343" x1="113.051" y1="-454.841" x2="113.051"
            y2="1989.09" gradientUnits="userSpaceOnUse">
            <stop stop-color="#F6871F" />
            <stop offset="0.2393" stop-color="#F57E20" />
            <stop offset="0.6262" stop-color="#F36621" />
            <stop offset="1" stop-color="#F04923" />
        </linearGradient>
        <linearGradient id="paint4_linear_12_17343" x1="93.1593" y1="-1136.04" x2="93.1593"
            y2="1307.9" gradientUnits="userSpaceOnUse">
            <stop stop-color="#F6871F" />
            <stop offset="0.2393" stop-color="#F57E20" />
            <stop offset="0.6262" stop-color="#F36621" />
            <stop offset="1" stop-color="#F04923" />
        </linearGradient>
        <linearGradient id="paint5_linear_12_17343" x1="127.192" y1="-293.802" x2="127.192"
            y2="2150.16" gradientUnits="userSpaceOnUse">
            <stop stop-color="#F6871F" />
            <stop offset="0.2393" stop-color="#F57E20" />
            <stop offset="0.6262" stop-color="#F36621" />
            <stop offset="1" stop-color="#F04923" />
        </linearGradient>
        <linearGradient id="paint6_linear_12_17343" x1="95.6563" y1="-1175.21" x2="95.6563"
            y2="1268.72" gradientUnits="userSpaceOnUse">
            <stop stop-color="#F6871F" />
            <stop offset="0.2393" stop-color="#F57E20" />
            <stop offset="0.6262" stop-color="#F36621" />
            <stop offset="1" stop-color="#F04923" />
        </linearGradient>
        <linearGradient id="paint7_linear_12_17343" x1="99.9949" y1="-816.119" x2="99.9949"
            y2="1627.81" gradientUnits="userSpaceOnUse">
            <stop stop-color="#F6871F" />
            <stop offset="0.2393" stop-color="#F57E20" />
            <stop offset="0.6262" stop-color="#F36621" />
            <stop offset="1" stop-color="#F04923" />
        </linearGradient>
        <linearGradient id="paint8_linear_12_17343" x1="107.05" y1="-602.852" x2="107.05"
            y2="1841.11" gradientUnits="userSpaceOnUse">
            <stop stop-color="#F6871F" />
            <stop offset="0.2393" stop-color="#F57E20" />
            <stop offset="0.6262" stop-color="#F36621" />
            <stop offset="1" stop-color="#F04923" />
        </linearGradient>
        <linearGradient id="paint9_linear_12_17343" x1="137.036" y1="-161.052" x2="137.036"
            y2="2282.9" gradientUnits="userSpaceOnUse">
            <stop stop-color="#F6871F" />
            <stop offset="0.2393" stop-color="#F57E20" />
            <stop offset="0.6262" stop-color="#F36621" />
            <stop offset="1" stop-color="#F04923" />
        </linearGradient>
        <linearGradient id="paint10_linear_12_17343" x1="68.0827" y1="-1447.28" x2="68.0827"
            y2="996.707" gradientUnits="userSpaceOnUse">
            <stop stop-color="#F6871F" />
            <stop offset="0.2393" stop-color="#F57E20" />
            <stop offset="0.6262" stop-color="#F36621" />
            <stop offset="1" stop-color="#F04923" />
        </linearGradient>
        <linearGradient id="paint11_linear_12_17343" x1="84.8207" y1="-1255.77" x2="84.8207"
            y2="1188.22" gradientUnits="userSpaceOnUse">
            <stop stop-color="#F6871F" />
            <stop offset="0.2393" stop-color="#F57E20" />
            <stop offset="0.6262" stop-color="#F36621" />
            <stop offset="1" stop-color="#F04923" />
        </linearGradient>
        <linearGradient id="paint12_linear_12_17343" x1="90.257" y1="-1155.64" x2="90.257"
            y2="1288.33" gradientUnits="userSpaceOnUse">
            <stop stop-color="#F6871F" />
            <stop offset="0.2393" stop-color="#F57E20" />
            <stop offset="0.6262" stop-color="#F36621" />
            <stop offset="1" stop-color="#F04923" />
        </linearGradient>
        <linearGradient id="paint13_linear_12_17343" x1="1382.97" y1="0" x2="1382.97" y2="2440.54"
            gradientUnits="userSpaceOnUse">
            <stop stop-color="#F6871F" />
            <stop offset="0.2402" stop-color="#F57E20" />
            <stop offset="0.6306" stop-color="#F36621" />
            <stop offset="1" stop-color="#F04923" />
        </linearGradient>
        <clipPath id="clip0_12_17343">
            <rect width="57" height="32" fill="white" />
        </clipPath>
    </defs>
</svg>