<svg width="80" height="24" viewBox="0 0 80 24" fill="none" xmlns="http://www.w3.org/2000/svg">
    <path
        d="M12.4461 0C5.5725 0 0 5.34945 0 11.9481C0 18.5471 5.5725 23.8961 12.4461 23.8961C19.3205 23.8961 24.8923 18.5471 24.8923 11.9481C24.8923 5.3499 19.3205 0.0006 12.4459 0.0006L12.4461 0ZM18.1539 17.2326C18.1008 17.3162 18.031 17.3888 17.9486 17.4465C17.8662 17.5041 17.7728 17.5456 17.6737 17.5685C17.5745 17.5915 17.4717 17.5954 17.371 17.5801C17.2702 17.5648 17.1737 17.5307 17.0867 17.4795C14.1645 15.7659 10.4858 15.3778 6.15344 16.3281C5.95283 16.3719 5.74232 16.3374 5.56817 16.2323C5.39401 16.1272 5.27047 15.9599 5.22469 15.7674C5.20187 15.6721 5.19887 15.5733 5.21586 15.4769C5.23285 15.3804 5.26949 15.2882 5.32368 15.2053C5.37788 15.1225 5.44857 15.0507 5.5317 14.9942C5.61482 14.9376 5.70876 14.8973 5.80813 14.8757C10.5492 13.8357 14.6159 14.2835 17.8967 16.2083C17.9837 16.2593 18.0594 16.3263 18.1194 16.4054C18.1794 16.4845 18.2226 16.5742 18.2464 16.6694C18.2703 16.7645 18.2744 16.8632 18.2585 16.9599C18.2426 17.0566 18.207 17.1493 18.1537 17.2328M19.6772 13.9794C19.3961 14.4177 18.7987 14.5562 18.3423 14.2865C14.997 12.3125 9.89719 11.7407 5.94016 12.8939C5.69384 12.9654 5.428 12.9403 5.20098 12.8239C4.97396 12.7075 4.8043 12.5095 4.72922 12.2732C4.65497 12.0367 4.68138 11.7817 4.80266 11.5639C4.92394 11.3462 5.13021 11.1834 5.37625 11.1114C9.89641 9.7947 15.5156 10.4325 19.3575 12.6988C19.8137 12.9685 19.958 13.5422 19.677 13.9796L19.6772 13.9794ZM19.8078 10.5917C15.7969 8.3043 9.17844 8.094 5.34859 9.21C4.73359 9.3891 4.08328 9.0558 3.89703 8.4654C3.80743 8.18177 3.83881 7.87559 3.98429 7.61417C4.12976 7.35275 4.37742 7.15748 4.67281 7.0713C9.06922 5.79 16.3778 6.0375 20.9961 8.66955C21.1277 8.7443 21.2427 8.84325 21.3344 8.96072C21.4261 9.07819 21.4928 9.21187 21.5306 9.35412C21.5685 9.49637 21.5767 9.64439 21.5548 9.78969C21.533 9.935 21.4815 10.0747 21.4033 10.2009C21.0764 10.7319 20.36 10.9069 19.8086 10.5917H19.8078ZM33.8616 11.03C31.7125 10.5379 31.3306 10.1928 31.3306 9.46725C31.3306 8.78175 32.0023 8.3205 33.0025 8.3205C33.9716 8.3205 34.9317 8.6709 35.9394 9.39195C35.9691 9.4137 36.0077 9.4224 36.0448 9.4167C36.0636 9.41414 36.0815 9.40793 36.0976 9.39847C36.1138 9.389 36.1277 9.37647 36.1386 9.36165L37.1878 7.94175C37.2086 7.91361 37.2173 7.87894 37.2124 7.84479C37.2074 7.81065 37.1891 7.77961 37.1611 7.758C35.9617 6.83445 34.6122 6.3855 33.0337 6.3855C30.7138 6.3855 29.0923 7.72215 29.0923 9.6348C29.0923 11.6858 30.4908 12.4121 32.9075 12.9726C34.963 13.4273 35.3106 13.8081 35.3106 14.4891C35.3106 15.2439 34.6091 15.7133 33.4797 15.7133C32.2253 15.7133 31.2013 15.3068 30.0569 14.3564C30.0283 14.3332 29.9916 14.3215 29.9544 14.3237C29.9358 14.3249 29.9177 14.3296 29.9011 14.3377C29.8844 14.3458 29.8697 14.357 29.8577 14.3706L28.6806 15.7146C28.657 15.7416 28.6452 15.7763 28.6477 15.8114C28.6502 15.8466 28.6668 15.8794 28.6941 15.903C30.0256 17.0445 31.6634 17.6466 33.432 17.6466C35.932 17.6466 37.5475 16.3353 37.5475 14.305C37.5519 12.5919 36.4834 11.6432 33.8661 11.0319L33.8616 11.03ZM43.2041 8.99535C42.1206 8.99535 41.2319 9.40515 40.4977 10.2449V9.29985C40.4977 9.22515 40.4352 9.1644 40.358 9.1644H38.4333C38.3961 9.1646 38.3605 9.17896 38.3343 9.20432C38.3081 9.22969 38.2935 9.26399 38.2936 9.2997V19.8011C38.2936 19.8752 38.3561 19.9365 38.4333 19.9365H40.358C40.3952 19.9362 40.4307 19.9218 40.4569 19.8964C40.4831 19.8711 40.4977 19.8368 40.4977 19.8011V16.4865C41.2319 17.2755 42.1206 17.6622 43.2039 17.6622C45.218 17.6622 47.257 16.1742 47.257 13.3293C47.26 10.4838 45.2208 8.9952 43.2055 8.9952L43.2041 8.99535ZM45.0187 13.3293C45.0187 14.7773 44.0898 15.7889 42.7581 15.7889C41.4428 15.7889 40.45 14.7317 40.45 13.3293C40.45 11.9268 41.4428 10.8698 42.7581 10.8698C44.0675 10.8698 45.0187 11.9039 45.0187 13.3293ZM52.4811 8.99535C49.8877 8.99535 47.8559 10.9124 47.8559 13.3604C47.8559 15.7818 49.8742 17.6779 52.4498 17.6779C55.0522 17.6779 57.0898 15.7676 57.0898 13.3293C57.0898 10.8993 55.0656 8.9958 52.4811 8.9958V8.99535ZM52.4811 15.8031C51.1019 15.8031 50.0616 14.7387 50.0616 13.3286C50.0616 11.912 51.0662 10.8839 52.4498 10.8839C53.838 10.8839 54.8842 11.9478 54.8842 13.3595C54.8842 14.7759 53.8736 15.8031 52.4811 15.8031ZM62.6275 9.1644H60.5097V7.086C60.5097 7.01145 60.4472 6.9507 60.37 6.9507H58.4453C58.4079 6.95078 58.3721 6.96505 58.3456 6.9904C58.3192 7.01575 58.3042 7.05011 58.3041 7.086V9.16425H57.3797C57.3425 9.16445 57.3069 9.17881 57.2807 9.20417C57.2545 9.22954 57.2399 9.26384 57.24 9.29955V10.8872C57.2399 10.9229 57.2545 10.9572 57.2807 10.9826C57.3069 11.008 57.3425 11.0224 57.3797 11.0226H58.3041V15.1311C58.3041 16.7904 59.1647 17.6322 60.8634 17.6322C61.553 17.6322 62.1252 17.4951 62.6647 17.2013C62.6865 17.1898 62.7047 17.1728 62.7172 17.1522C62.7298 17.1316 62.7363 17.1081 62.7361 17.0842V15.5718C62.736 15.5489 62.7298 15.5264 62.7181 15.5065C62.7064 15.4865 62.6896 15.4698 62.6692 15.4578C62.649 15.4453 62.6256 15.4382 62.6016 15.4372C62.5776 15.4362 62.5537 15.4412 62.5323 15.452C62.1623 15.6305 61.8042 15.7131 61.4028 15.7131C60.7861 15.7131 60.5097 15.4434 60.5097 14.8413V11.0235H62.6275C62.6647 11.0233 62.7003 11.0089 62.7265 10.9835C62.7527 10.9581 62.7674 10.9238 62.7672 10.8881V9.30045C62.7678 9.28274 62.7647 9.26509 62.758 9.24857C62.7514 9.23205 62.7413 9.217 62.7283 9.20433C62.7154 9.19167 62.7 9.18165 62.6829 9.17489C62.6658 9.16813 62.6475 9.16477 62.6291 9.165L62.6275 9.1644ZM70.0052 9.1725V8.9172C70.0052 8.1663 70.3053 7.8315 70.977 7.8315C71.3786 7.8315 71.7009 7.908 72.0622 8.0235C72.0833 8.03032 72.1059 8.03219 72.1279 8.02894C72.15 8.02569 72.1709 8.01742 72.189 8.00482C72.207 7.99222 72.2217 7.97566 72.2317 7.95652C72.2417 7.93738 72.2468 7.91622 72.2466 7.8948L72.2464 6.33825C72.2468 6.30917 72.2373 6.28077 72.2193 6.25736C72.2013 6.23394 72.1759 6.21679 72.1469 6.2085C71.7664 6.0996 71.2789 5.988 70.5477 5.988C68.7716 5.988 67.8308 6.94875 67.8308 8.7654V9.1563H66.9064C66.869 9.15638 66.8332 9.17065 66.8067 9.196C66.7803 9.22135 66.7653 9.25571 66.7652 9.2916V10.8873C66.7652 10.9619 66.8292 11.0228 66.9064 11.0228H67.8308V17.3583C67.8308 17.4339 67.8948 17.4939 67.972 17.4939H69.8952C69.9739 17.4939 70.0364 17.4339 70.0364 17.3583V11.0231H71.8333L74.5858 17.3582C74.2736 18.0231 73.9659 18.1557 73.5467 18.1557C73.208 18.1557 72.8498 18.0588 72.4858 17.8662C72.4512 17.8494 72.4114 17.8458 72.3742 17.8562C72.3559 17.8621 72.339 17.8716 72.3246 17.8841C72.3103 17.8967 72.2988 17.9119 72.2909 17.9289L71.6386 19.3029C71.6236 19.3341 71.6215 19.3696 71.6328 19.4022C71.6441 19.4349 71.668 19.4621 71.6995 19.4784C72.3802 19.8323 72.9939 19.9835 73.7534 19.9835C75.1742 19.9835 75.9605 19.3472 76.6516 17.6379L79.9897 9.3573C79.9984 9.33683 80.0016 9.31459 79.999 9.29263C79.9964 9.27067 79.9881 9.24968 79.9748 9.2316C79.9623 9.21348 79.9453 9.19863 79.9253 9.18836C79.9053 9.1781 79.883 9.17276 79.8603 9.1728H77.8569C77.8275 9.17264 77.7988 9.18131 77.7748 9.19758C77.7509 9.21385 77.7328 9.23692 77.7231 9.26355L75.6706 14.8899L73.4234 9.2598C73.4134 9.23429 73.3955 9.21232 73.3721 9.19678C73.3488 9.18125 73.3211 9.17289 73.2927 9.1728H70.0052V9.1725ZM65.7278 9.1644H63.8031C63.7658 9.16456 63.73 9.17886 63.7036 9.20419C63.6772 9.22953 63.6622 9.26385 63.662 9.2997V17.3583C63.662 17.4339 63.7259 17.4939 63.8031 17.4939H65.7278C65.8052 17.4939 65.8691 17.4339 65.8691 17.3583V9.3003C65.8691 9.28248 65.8655 9.26483 65.8584 9.24836C65.8514 9.23189 65.841 9.21693 65.8278 9.20434C65.8147 9.19175 65.7991 9.18177 65.7819 9.175C65.7648 9.16822 65.7464 9.16477 65.7278 9.16485V9.1644ZM64.7766 5.4948C64.0141 5.4948 63.3959 6.0873 63.3959 6.819C63.3959 6.99306 63.4316 7.16542 63.501 7.32623C63.5704 7.48705 63.6721 7.63317 63.8003 7.75624C63.9285 7.87932 64.0807 7.97695 64.2482 8.04355C64.4157 8.11015 64.5953 8.14442 64.7766 8.1444C65.5391 8.1444 66.1558 7.5513 66.1558 6.819C66.1557 6.46785 66.0104 6.1311 65.7517 5.88279C65.4931 5.63448 65.1423 5.49492 64.7766 5.4948Z"
        fill="#1ED760" />
</svg>