<svg width="18" height="17" viewBox="0 0 18 17" fill="none" xmlns="http://www.w3.org/2000/svg">
    <path
        d="M12.2477 4.17109C11.682 2.84684 10.6765 1.75852 9.40101 1.09014C8.12553 0.421747 6.65839 0.214292 5.2476 0.502843C3.83682 0.791394 2.56895 1.55825 1.65834 2.67376C0.747729 3.78927 0.250248 5.18501 0.25 6.625V11.7812C0.25 12.0713 0.365234 12.3495 0.570352 12.5546C0.77547 12.7598 1.05367 12.875 1.34375 12.875H5.77109C6.25882 13.9888 7.06026 14.9365 8.07758 15.6024C9.09491 16.2683 10.2841 16.6236 11.5 16.625H16.6562C16.9463 16.625 17.2245 16.5098 17.4296 16.3046C17.6348 16.0995 17.75 15.8213 17.75 15.5312V10.375C17.7497 8.84708 17.1897 7.3722 16.1759 6.22909C15.1621 5.08599 13.7646 4.35387 12.2477 4.17109ZM1.5 6.625C1.5 5.63609 1.79324 4.66939 2.34265 3.84715C2.89206 3.0249 3.67295 2.38404 4.58658 2.0056C5.50021 1.62716 6.50555 1.52815 7.47545 1.72107C8.44536 1.914 9.33627 2.3902 10.0355 3.08947C10.7348 3.78873 11.211 4.67964 11.4039 5.64955C11.5969 6.61945 11.4978 7.62479 11.1194 8.53842C10.741 9.45205 10.1001 10.2329 9.27785 10.7823C8.4556 11.3318 7.48891 11.625 6.5 11.625H1.5V6.625ZM16.5 15.375H11.5C10.6159 15.374 9.74775 15.1391 8.98375 14.6941C8.21976 14.2491 7.5871 13.6099 7.15 12.8414C8.00603 12.7526 8.83445 12.4878 9.58328 12.0636C10.3321 11.6394 10.9852 11.065 11.5015 10.3764C12.0178 9.68788 12.3862 8.90004 12.5836 8.06235C12.7809 7.22466 12.803 6.35522 12.6484 5.50859C13.7447 5.76732 14.7216 6.38865 15.4206 7.2719C16.1197 8.15515 16.5 9.24858 16.5 10.375V15.375Z"
        fill="#C5D2F5" />
</svg>