<svg width="20" height="21" viewBox="0 0 20 21" fill="none" xmlns="http://www.w3.org/2000/svg">
    <path
        d="M9.16013 12.8375C9.99779 12.2798 10.6338 11.4674 10.974 10.5204C11.3142 9.5733 11.3406 8.5419 11.0493 7.57868C10.758 6.61545 10.1644 5.77154 9.35641 5.17174C8.54838 4.57194 7.56879 4.2481 6.56248 4.2481C5.55617 4.2481 4.57657 4.57194 3.76855 5.17174C2.96053 5.77154 2.36698 6.61545 2.07567 7.57868C1.78437 8.5419 1.81078 9.5733 2.15099 10.5204C2.49121 11.4674 3.12716 12.2798 3.96482 12.8375C2.44958 13.396 1.15553 14.4294 0.275759 15.7836C0.229521 15.8523 0.197405 15.9295 0.181276 16.0108C0.165147 16.092 0.165327 16.1757 0.181807 16.2568C0.198286 16.338 0.230736 16.4151 0.27727 16.4836C0.323804 16.5521 0.383494 16.6107 0.45287 16.656C0.522246 16.7012 0.599925 16.7322 0.68139 16.7472C0.762856 16.7622 0.846484 16.7608 0.927412 16.7432C1.00834 16.7255 1.08496 16.692 1.1528 16.6445C1.22065 16.5969 1.27838 16.5364 1.32263 16.4664C1.89013 15.5936 2.66666 14.8763 3.58173 14.3798C4.49679 13.8833 5.52139 13.6232 6.56248 13.6232C7.60357 13.6232 8.62817 13.8833 9.54323 14.3798C10.4583 14.8763 11.2348 15.5936 11.8023 16.4664C11.894 16.6027 12.0356 16.6973 12.1965 16.73C12.3575 16.7627 12.5248 16.7307 12.6623 16.641C12.7999 16.5513 12.8966 16.4111 12.9315 16.2506C12.9665 16.0902 12.9369 15.9224 12.8492 15.7836C11.9694 14.4294 10.6754 13.396 9.16013 12.8375ZM3.12498 8.9375C3.12498 8.25763 3.32658 7.59302 3.7043 7.02773C4.08202 6.46244 4.61888 6.02184 5.247 5.76167C5.87512 5.50149 6.56629 5.43342 7.2331 5.56605C7.89991 5.69869 8.51241 6.02608 8.99316 6.50682C9.4739 6.98757 9.80129 7.60007 9.93393 8.26688C10.0666 8.93369 9.99849 9.62486 9.73831 10.253C9.47814 10.8811 9.03754 11.418 8.47225 11.7957C7.90696 12.1734 7.24235 12.375 6.56248 12.375C5.65111 12.374 4.77737 12.0115 4.13294 11.367C3.48851 10.7226 3.12601 9.84887 3.12498 8.9375ZM19.5422 16.6484C19.4033 16.739 19.2342 16.7706 19.0721 16.7365C18.9099 16.7024 18.7679 16.6052 18.6773 16.4664C18.1105 15.5931 17.3341 14.8755 16.4188 14.3792C15.5036 13.8829 14.4786 13.6236 13.4375 13.625C13.2717 13.625 13.1127 13.5592 12.9955 13.4419C12.8783 13.3247 12.8125 13.1658 12.8125 13C12.8125 12.8342 12.8783 12.6753 12.9955 12.5581C13.1127 12.4408 13.2717 12.375 13.4375 12.375C13.9437 12.3745 14.4436 12.2622 14.9014 12.0462C15.3592 11.8301 15.7636 11.5156 16.0858 11.1251C16.4079 10.7347 16.6399 10.2778 16.765 9.78733C16.8902 9.29681 16.9055 8.78471 16.8097 8.28762C16.714 7.79052 16.5097 7.3207 16.2114 6.91172C15.9131 6.50274 15.5281 6.1647 15.084 5.92175C14.6399 5.6788 14.1476 5.53694 13.6423 5.5063C13.137 5.47567 12.6311 5.55702 12.1609 5.74453C12.0842 5.77768 12.0017 5.79512 11.9182 5.79582C11.8347 5.79653 11.7519 5.78048 11.6746 5.74864C11.5974 5.7168 11.5274 5.6698 11.4686 5.61043C11.4099 5.55106 11.3636 5.48051 11.3326 5.40296C11.3016 5.32541 11.2864 5.24243 11.288 5.15892C11.2896 5.07541 11.3079 4.99307 11.3419 4.91676C11.3758 4.84045 11.4248 4.77172 11.4857 4.71463C11.5467 4.65754 11.6185 4.61325 11.6969 4.58438C12.773 4.1552 13.9699 4.13975 15.0568 4.54102C16.1437 4.94229 17.0434 5.73184 17.5825 6.75736C18.1215 7.78287 18.2617 8.97169 17.976 10.0945C17.6903 11.2172 16.9988 12.1944 16.0351 12.8375C17.5504 13.396 18.8444 14.4294 19.7242 15.7836C19.8147 15.9224 19.8464 16.0915 19.8123 16.2537C19.7781 16.4159 19.681 16.5579 19.5422 16.6484Z"
        fill="#C5D2F5" />
</svg>