<svg width="81" height="18" viewBox="0 0 81 18" fill="none" xmlns="http://www.w3.org/2000/svg">
    <g clip-path="url(#clip0_12_18479)">
        <path
            d="M25.2951 2.78224C25.1467 2.24444 24.8573 1.75416 24.4556 1.36021C24.0539 0.966261 23.554 0.682401 23.0057 0.536897C20.9983 0 12.9198 0 12.9198 0C12.9198 0 4.841 0.0162931 2.83388 0.55319C2.28559 0.698718 1.78574 0.982589 1.3841 1.37653C0.982462 1.77048 0.693046 2.26075 0.544676 2.79853C-0.0625076 6.2969 -0.298072 11.6272 0.561287 14.9855C0.709658 15.5232 0.999073 16.0135 1.40071 16.4075C1.80235 16.8014 2.3022 17.0853 2.85049 17.2308C4.85777 17.7677 12.9364 17.7677 12.9364 17.7677C12.9364 17.7677 21.0151 17.7677 23.0223 17.2308C23.5706 17.0853 24.0705 16.8014 24.4721 16.4075C24.8737 16.0135 25.1632 15.5232 25.3115 14.9855C25.9518 11.4823 26.1492 6.15522 25.2949 2.7824"
            fill="#FF0000" />
        <path d="M10.3486 12.6913L17.0504 8.88394L10.3486 5.07648V12.6913Z" fill="white" />
        <path
            d="M77.7152 5.15794C78.5943 5.15794 79.2579 5.32056 79.7223 5.62966C80.1868 5.93892 80.5187 6.42693 80.7178 7.09418C80.9168 7.76126 80.9997 8.67228 80.9997 9.84383V11.7476H76.7364V12.3333L76.8029 13.9441C76.8525 14.3021 76.9356 14.5625 77.0682 14.7251C77.2011 14.8879 77.4165 14.9692 77.6986 14.9692C78.0802 14.9692 78.3457 14.8228 78.4782 14.53C78.6276 14.2371 78.6939 13.7489 78.7105 13.0818L80.9168 13.212C80.9334 13.3096 80.9334 13.4398 80.9334 13.6024C80.9334 14.6275 80.6513 15.3923 80.0707 15.8966C79.4901 16.401 78.6939 16.6613 77.6488 16.6613C76.3881 16.6613 75.5089 16.2709 75.0112 15.5062C74.5137 14.7414 74.2482 13.5372 74.2482 11.9266V9.95773C74.3045 7.19178 74.8005 5.166 77.7152 5.15794ZM47.0428 5.36944V13.5211C47.0428 14.0093 47.0925 14.3673 47.2086 14.5788C47.4442 15.0311 48.0547 14.9155 48.3864 14.6927C48.5779 14.5657 48.7323 14.3918 48.8343 14.1883V5.36928H51.3723V16.4823H49.3817L49.166 15.1155H49.1164C48.569 16.1406 47.756 16.6612 46.6778 16.6612C45.0183 16.6571 44.6122 15.4843 44.5155 14.2932L44.5092 14.2093C44.4972 14.0289 44.4902 13.8482 44.4881 13.6674V5.36944H47.0428ZM60.1313 5.36944V13.5211C60.1313 14.0093 60.1809 14.3673 60.2971 14.5788C60.5328 15.0311 61.1431 14.9155 61.4749 14.6927C61.6664 14.5657 61.8208 14.3918 61.9227 14.1883V5.36928H64.4608V16.4823H62.4701L62.2545 15.1155H62.2048C61.6574 16.1406 60.8444 16.6612 59.7663 16.6612C58.1067 16.6571 57.7006 15.4843 57.604 14.2932L57.5976 14.2093C57.5857 14.0289 57.5787 13.8482 57.5766 13.6674V5.36944H60.1313ZM39.6773 5.15794C40.5068 5.15794 41.1869 5.32056 41.6846 5.66225C42.1822 6.00394 42.5637 6.52469 42.796 7.2405C43.0282 7.95647 43.1444 8.91637 43.1444 10.1042V11.7149C43.1444 12.9027 43.0282 13.8465 42.796 14.5623C42.5637 15.2784 42.1988 15.799 41.6846 16.1407C41.1705 16.4661 40.4736 16.645 39.611 16.645C38.7151 16.6613 38.0184 16.4824 37.5043 16.157C36.9901 15.8153 36.625 15.2946 36.4095 14.5788C36.1937 13.8628 36.0942 12.919 36.0942 11.7313V10.1203C36.0942 8.9325 36.2103 7.95631 36.4592 7.24035C36.708 6.50825 37.0894 5.98749 37.6204 5.66225C38.1511 5.33669 38.8313 5.15778 39.6773 5.15778M68.4421 0.699677V6.55712H68.4587C68.691 6.13412 68.9895 5.79244 69.4043 5.53206C69.7916 5.2766 70.248 5.14063 70.7147 5.14164C71.3286 5.14164 71.793 5.30426 72.1414 5.61337C72.4898 5.93892 72.7386 6.44323 72.8878 7.1429C73.0326 7.82069 73.1148 8.75809 73.1199 9.94019L73.1201 10.0555V11.8127C73.1201 13.4559 72.9044 14.6764 72.5062 15.4573C72.0917 16.2383 71.4613 16.6289 70.5986 16.6289C70.1177 16.6289 69.6863 16.515 69.2882 16.3035C68.9361 16.1023 68.6442 15.8137 68.4418 15.4668L68.4089 15.4085H68.3592L68.0938 16.4661H65.987V0.699832L68.4421 0.699677ZM58.2898 1.26916V3.28656H55.7683V16.4823H53.2801V3.28671H50.7421V1.26931L58.2898 1.26916ZM30.935 1.26916L30.9366 1.27537C30.9608 1.38104 31.2962 2.84354 31.6651 4.54749L31.6942 4.68249L31.7382 4.88654L31.7676 5.02356L31.7824 5.0923L31.8118 5.23009L31.8265 5.29914L31.8558 5.4374L31.8985 5.63959C32.1477 6.81952 32.3854 8.00287 32.5277 8.85135H32.5941C32.7303 8.09023 32.9282 7.11621 33.1393 6.12171L33.1946 5.86195C33.2225 5.73192 33.2503 5.60188 33.2785 5.47216L33.3218 5.2709C33.6084 3.953 33.9036 2.6369 34.2073 1.32269L34.212 1.30175L34.2196 1.26916H36.7577L33.8214 11.5361V16.4661H31.3166V11.5523H31.3L28.397 1.269L30.935 1.26916ZM39.6275 6.88252C39.2791 6.88252 39.0469 7.06159 38.8977 7.43587C38.7484 7.80999 38.6821 8.37947 38.6821 9.1769V12.6425C38.6821 13.4561 38.7484 14.058 38.8811 14.4161C39.0138 14.774 39.2627 14.953 39.6275 14.953C39.9759 14.953 40.2247 14.774 40.3741 14.4161C40.5234 14.058 40.5897 13.4561 40.5897 12.6425V9.17675C40.5897 8.37947 40.5232 7.79369 40.3741 7.43571C40.2247 7.06159 39.9759 6.88252 39.6275 6.88252ZM68.89 7.20807C68.6878 7.39118 68.544 7.61695 68.4584 7.89921L68.4421 7.95647V14.2695C68.6478 14.6112 68.9398 14.839 69.454 14.8553C69.7195 14.8553 69.9349 14.7577 70.1011 14.5625C70.2669 14.3673 70.383 14.0417 70.4493 13.5861C70.513 13.1488 70.5462 12.5465 70.5488 11.7793V10.2344C70.5488 9.35581 70.5155 8.68873 70.4659 8.21685C70.3994 7.74497 70.3167 7.40328 70.1673 7.20807C69.8786 6.80121 69.255 6.80618 68.89 7.20807ZM77.6655 6.8338C77.3835 6.85009 77.1843 6.9314 77.0682 7.07788C76.9356 7.2405 76.8525 7.48459 76.8029 7.84257C76.754 8.19326 76.7372 9.41912 76.7364 9.46816V10.267H78.5943V9.5625V9.576C78.5932 9.82226 78.588 9.43309 78.5766 8.95531L78.575 8.89107C78.5646 8.47118 78.5494 8.00302 78.5281 7.84257C78.4782 7.4683 78.3952 7.20792 78.2626 7.06159C78.1299 6.91511 77.9308 6.8338 77.6654 6.8338"
            fill="#282828" />
    </g>
    <defs>
        <clipPath id="clip0_12_18479">
            <rect width="81" height="18" fill="white" />
        </clipPath>
    </defs>
</svg>